<svg xmlns="http://www.w3.org/2000/svg" width="120" height="120" viewBox="0 0 120 120">
    <g fill="none" fill-rule="evenodd">
        <circle cx="60" cy="60" r="57.5" fill="#FFF" stroke="#000" stroke-width="5"/>
        <path fill="#000" fill-rule="nonzero" d="M94.682 64.59c-.622-1.736-1.954-2.903-3.314-2.903-.254 0-.502.042-.738.124-.004.002-.01 0-.013.002l-.013.006-33.278 11.789a3.655 3.655 0 0 0-2.244-.78H28.684c-2.031 0-3.684 1.645-3.684 3.668v9.007c0 2.023 1.653 3.669 3.684 3.669h.871l1.199 2.485c.369.766 1.29 1.343 2.142 1.343h46.34c.853 0 1.773-.577 2.142-1.343l1.197-2.485h1.448c2.031 0 3.684-1.646 3.684-3.67v-9.006c0-2.023-1.653-3.669-3.684-3.669h-.686l9.953-3.526c1.528-.544 2.139-2.613 1.392-4.71zM58.975 75.631c.247-.516.681-.907 1.223-1.1l17.998-6.376c-.054.682.049 1.42.303 2.133.265.745.69 1.388 1.19 1.89l-17.997 6.376a.947.947 0 0 0-.09.035 2.157 2.157 0 0 1-2.71-1.318 2.118 2.118 0 0 1 .083-1.64zm20.748 15.234c-.066.136-.335.305-.487.305h-46.34c-.153 0-.422-.17-.488-.305l-.816-1.695h48.946l-.815 1.695zm4.3-16.21c1.02 0 1.848.825 1.848 1.84v9.007a1.846 1.846 0 0 1-1.848 1.84H28.684c-1.02 0-1.849-.825-1.849-1.84v-9.007c0-1.014.829-1.84 1.85-1.84h26.397c1.019 0 1.849.825 1.849 1.84 0 .025.012.047.014.072.002.442.064.887.218 1.317a3.997 3.997 0 0 0 5.103 2.41 1.73 1.73 0 0 0 .072-.029l15.837-5.61h5.848zm-1.898-3.34c-.06.01-.119.005-.176.026-.161.053-.344-.005-.471-.065-.395-.187-.931-.705-1.25-1.6-.212-.599-.268-1.225-.152-1.717.06-.258.165-.46.294-.574l8.573-3.037a5.118 5.118 0 0 0 1.444 4.04l-8.262 2.927zm10.551-3.738h-.006c-.156.055-.34-.005-.468-.064-.396-.187-.932-.705-1.252-1.603-.32-.895-.233-1.634-.045-2.028.059-.125.165-.284.32-.343l.005-.002a.399.399 0 0 1 .137-.022c.472 0 1.212.646 1.585 1.688.44 1.23.13 2.226-.276 2.374zM49.295 53.405c4.007.905 6.752 2.646 8.159 5.173 2.006 3.602.715 7.762.436 8.559l-.014.04a.915.915 0 0 0 .87 1.202c.35 0 .68-.2.835-.533.066-.145.361-.588.646-1.015 1.784-2.679 5.958-8.95 4.341-14.455-1.297-4.416-3.817-6.255-8.976-8.706-5.54-2.634-8.525-6.068-8.874-10.207-.12-1.405.076-2.833.579-4.242a.912.912 0 0 0-.229-.966.918.918 0 0 0-.977-.189c-7.883 3.146-9.184 9.51-9.377 12.099-.498 6.688 3.853 11.266 12.58 13.24zm-10.75-13.103c.153-2.045 1.108-6.804 6.494-9.729a11.502 11.502 0 0 0-.148 3.043c.406 4.832 3.742 8.77 9.911 11.703 4.96 2.358 6.914 3.856 8.005 7.572 1.003 3.408-.756 7.391-2.422 10.26.005-1.688-.304-3.625-1.324-5.46-1.672-3.002-4.82-5.045-9.358-6.07-7.832-1.77-11.586-5.578-11.158-11.319z"/>
    </g>
</svg>
