<svg xmlns="http://www.w3.org/2000/svg" width="120" height="120" viewBox="0 0 120 120">
    <g fill="none" fill-rule="evenodd">
        <circle cx="60" cy="60" r="60" fill="#14B690"/>
        <g fill="#FFF" fill-rule="nonzero">
            <path d="M27.5 68.136h55.071v8.182H27.5zM84.594 68.136h3.079v8.182h-3.079zM89.421 68.136H92.5v8.182h-3.079zM61.2 45.012c1.558.789 3.231.978 4.681.91-1.331 2.179-1.464 4.734-.832 6.25.419 1.003 1.691 4.058 5.707 4.058h11.446c2.803 0 2.803.958 2.803 2.068l.002 6.711h2.207l-.002-6.711c0-1.169 0-4.275-5.01-4.275H70.756c-1.807 0-2.87-.781-3.672-2.699-.448-1.078-.342-4.378 2.588-6.147a1.104 1.104 0 0 0-.942-1.982c-.039.013-3.711 1.287-6.543-.155-1.424-.726-2.431-2.054-2.99-3.946-.654-2.212-.393-4.143.777-5.741 1.809-2.471 5.253-3.45 5.816-3.461v-2.207c-1.234 0-5.292 1.278-7.547 4.297-1.617 2.165-2.02 4.841-1.162 7.738.74 2.501 2.126 4.282 4.119 5.292z"/>
            <path d="M89.938 65.009h2.206v-8.09c0-6.252-3.461-9.838-9.492-9.838H77.1c1.568-2.048 1.896-4.197 1.896-7.308 0-4.053-3.164-8.414-10.111-8.414v2.207c5.835 0 7.904 3.344 7.904 6.207 0 3.414-.296 5.273-3.008 7.568a1.104 1.104 0 0 0 .713 1.947h8.158c4.834 0 7.286 2.567 7.286 7.631v8.09z"/>
        </g>
    </g>
</svg>
