<svg xmlns="http://www.w3.org/2000/svg" width="120" height="120" viewBox="0 0 120 120">
    <g fill="none" fill-rule="evenodd">
        <circle cx="60" cy="60" r="60" fill="#14B690"/>
        <g fill="#FFF" fill-rule="nonzero">
            <path d="M60 19a41.01 41.01 0 0 0-37.88 25.31 41.006 41.006 0 0 0 8.89 44.68 41.005 41.005 0 0 0 44.68 8.89A41.007 41.007 0 0 0 101 60c0-22.631-18.368-41-41-41zm0 8.66c17.873 0 32.338 14.468 32.338 32.34 0 7.021-2.285 13.657-6.255 19.084l-12.868-9.892h2.87a.997.997 0 0 0 .896-.559c.661-1.351.457-2.693.25-3.793-.207-1.1-.395-2.007-.184-2.8a.997.997 0 0 0-.963-1.255H62.282L34.844 39.69A32.328 32.328 0 0 1 60 27.66zM30.358 47.11l17.785 13.675H32.926a.997.997 0 0 0-.996.996v6.415c0 .55.446.995.996.996h26.149L80.07 85.336a32.289 32.289 0 0 1-7.696 4.541 32.334 32.334 0 0 1-35.242-7.012 32.333 32.333 0 0 1-7.011-35.242c.072-.175.16-.34.236-.513z"/>
            <path d="M60.645 34.005a.997.997 0 0 0-1.03 1.06c.31 6.212 1.817 10.386 3.977 13.213s4.94 4.244 7.543 5.062c2.603.82 5.074 1.091 6.648 1.573.787.24 1.31.528 1.565.812.254.285.381.582.285 1.32a.997.997 0 1 0 1.974.258c.148-1.138-.128-2.186-.773-2.906-.645-.72-1.518-1.1-2.467-1.39-1.897-.581-4.264-.824-6.634-1.569s-4.699-1.939-6.557-4.37c-1.858-2.433-3.275-6.164-3.57-12.1a.997.997 0 0 0-.961-.963z"/>
            <path d="M66.096 34.005a.997.997 0 0 0-1.008 1.08c.405 5.791 1.845 9.216 3.96 11.25 2.113 2.033 4.755 2.528 7.143 2.822 2.39.293 4.561.447 6.059 1.373 1.498.926 2.612 2.607 2.846 6.701a.997.997 0 1 0 1.988-.113c-.254-4.452-1.689-6.987-3.787-8.283-2.099-1.297-4.567-1.373-6.861-1.655-2.294-.282-4.375-.71-6.008-2.28-1.634-1.572-2.968-4.435-3.354-9.954a.997.997 0 0 0-.978-.941zM80.947 60.774a.997.997 0 0 0-.797.478c-.915 1.463-.55 2.996-.234 4.098.316 1.102.514 1.79.201 2.375a.997.997 0 1 0 1.758.94c.757-1.413.257-2.816-.043-3.864s-.472-1.723.008-2.49a.997.997 0 0 0-.893-1.537zM86.232 60.774a.997.997 0 0 0-.796.478c-.916 1.463-.55 2.996-.235 4.098.316 1.102.514 1.79.201 2.375a.997.997 0 1 0 1.756.94c.757-1.413.258-2.816-.043-3.864-.3-1.048-.47-1.723.01-2.49a.997.997 0 0 0-.892-1.537z"/>
        </g>
    </g>
</svg>
