<svg xmlns="http://www.w3.org/2000/svg" width="120" height="120" viewBox="0 0 120 120">
    <g fill="none" fill-rule="evenodd">
        <g>
            <circle cx="60" cy="60" r="57.5" fill="#FFF" stroke="#000" stroke-width="5"/>
            <g fill="#000" fill-rule="nonzero">
                <path d="M66 24.1c0-1.16-.941-2.1-2.1-2.1h-9.8a2.1 2.1 0 0 0-2.1 2.1V29h14v-4.9zM74 45.25L66.75 31h-14.5L45 45.25v3.563c0 1.781 1.812 1.781 1.812 3.563 0 1.782-1.812 1.782-1.812 3.562 0 1.782 1.813 1.782 1.813 3.563 0 1.781-1.813 1.781-1.813 3.562 0 1.782 1.813 1.782 1.813 3.564 0 1.78-1.813 1.78-1.813 3.563v10.685C45 84.812 48.246 88 52.25 88h14.5c4.004 0 7.25-3.19 7.25-7.125V70.187c0-1.781-1.813-1.781-1.813-3.563 0-1.78 1.812-1.78 1.812-3.563 0-1.78-1.812-1.78-1.812-3.562 0-1.781 1.812-1.781 1.812-3.563 0-1.78-1.812-1.78-1.812-3.563 0-1.78 1.812-1.78 1.812-3.562V45.25H74z"/>
            </g>
        </g>
        <path stroke="#979797" d="M-306.5-369.5h739v660h-739z"/>
    </g>
</svg>
