<svg xmlns="http://www.w3.org/2000/svg" width="120" height="120" viewBox="0 0 120 120">
    <g fill="none" fill-rule="evenodd">
        <g>
            <circle cx="60" cy="60" r="57.5" fill="#FFF" stroke="#000" stroke-width="5"/>
            <g transform="translate(23 36)">
                <circle cx="34.5" cy="5.5" r="5.5" fill="#000" fill-rule="nonzero"/>
                <path fill="#000" fill-rule="nonzero" d="M71.125 33.936l-2.092-.129a3.058 3.058 0 0 0-2.715-2.078l-3.757-.23 2.845-4.918a6.033 6.033 0 0 0 1.561-6.605C62.157 7.43 52.382 3.414 47.365 3.02L46.375 3c-3.384 0-6.127 2.718-6.127 6.071 0 .024.003.046.003.07l-.002.012-.534 6.708-8.585-1.66c-1.419-.274-2.803.646-3.081 2.056a2.603 2.603 0 0 0 2.075 3.052l8.522 1.647c-1.079.797-2.402 1.48-4.037 1.958a2.598 2.598 0 0 0-1.776 3.231 2.624 2.624 0 0 0 3.262 1.76c7.428-2.172 10.703-7.645 11.886-12.301 1.79.731 4.571 2.525 6.696 6.801l-5.757 9.95a3.008 3.008 0 0 0-.038 2.95 3.067 3.067 0 0 0 2.508 1.59l2.11.13c.055.163.104.33.188.486a3.067 3.067 0 0 0 2.508 1.59l14.55.893c.065.004.13.006.193.006 1.605 0 2.954-1.239 3.055-2.848.104-1.672-1.18-3.112-2.87-3.216zM21 20c-9.08.732-10 9.827-10 9.827C21.123 31.536 21 20 21 20zM10 31.827S9.08 22.733 0 22c0 0-.122 11.537 10 9.827zM9 18.879S8.356 12.512 2 12c0 0-.086 8.076 7 6.879z"/>
                <path fill="#000" fill-rule="nonzero" d="M9.445 19s6.098-1.722 5.516-8c-.001 0-7.89 1.304-5.516 8z"/>
                <path fill="#000" fill-rule="nonzero" d="M8.963 15s2.59-3.705-.415-7c-.001 0-3.745 4.271.415 7zM10.807 41a.98.98 0 0 1-.212-.023c-.5-.108-.81-.57-.694-1.034.596-2.375.06-9.354-1.234-12.72-1.46-3.802-.078-8.404-.019-8.598.141-.457.655-.721 1.147-.592.494.13.78.606.641 1.062-.013.043-1.277 4.273-.018 7.55 1.446 3.765 1.962 11.02 1.292 13.688-.1.399-.48.667-.903.667z"/>
                <path fill="#000" fill-rule="nonzero" d="M0 41.119s3.931-2.89 6.617-1.051c2.687 1.838 10.438-2.013 12.764-.612 2.326 1.4 12.689-1.052 17.777-.314 5.224.757 7.69 3.024 11.783 1.274 4.06-1.735 16.696-1.924 19.797.703 3.102 2.627 3.1 4.991 3.1 4.991S79.333 49 66.414 49C66.412 49 12.92 49 0 41.119zM31.79 22.425l-7.647 6.444-1.933-2.294 7.647-6.444z"/>
                <path fill="#000" fill-rule="nonzero" d="M24.277 28.28l7.647-6.443 5.8 6.882-7.648 6.444z"/>
                <path fill="#000" fill-rule="nonzero" d="M34.92 26l-.713-.248c.001-.005.29-1.025-.785-2.983-1.073-1.955-3.399-2.005-3.422-2.006l.008-.763c.113 0 2.788.058 4.072 2.397 1.237 2.255.884 3.47.84 3.603zM29.887 35L20 33.526 20.52 31l7.788 1.224-.118.762-7.067-1.113-.208 1.011L30 34.24z"/>
                <path fill="#000" fill-rule="nonzero" d="M19.685 33.967c-.14.034-.283.042-.423.023-.83-.11-1.375-1.07-1.242-2.186.13-1.088.91-1.9 1.718-1.795.83.11 1.375 1.07 1.242 2.187-.107.898-.628 1.611-1.295 1.771zm-.196-3.136c-.29.07-.621.462-.695 1.075-.076.638.184 1.22.565 1.27.334.044.76-.362.847-1.083.077-.637-.182-1.22-.565-1.27a.39.39 0 0 0-.152.008z"/>
                <g stroke="#000" stroke-linecap="round" stroke-width=".75">
                    <path d="M16.461 31.484s-.145.037-.404.12"/>
                    <path stroke-dasharray="1.0006,1.0006" d="M15.258 31.886c-1.778.685-5.194 2.342-7.942 5.732"/>
                    <path d="M7.04 37.967c-.088.115-.176.232-.263.35"/>
                </g>
                <g stroke="#000" stroke-linecap="round" stroke-width=".75">
                    <path d="M18.102 32.15s-.157.036-.438.12"/>
                    <path stroke-dasharray="1.0322,1.0322" d="M16.773 32.563c-1.723.623-4.807 2.04-7.33 4.823"/>
                    <path d="M9.134 37.738c-.096.113-.192.228-.286.345"/>
                </g>
                <g stroke="#000" stroke-linecap="round" stroke-width=".75">
                    <path d="M17.362 34.172s-.147.042-.41.136"/>
                    <path stroke-dasharray="1.1253,1.1253" d="M16.044 34.677c-.787.353-1.857.915-3.016 1.756"/>
                    <path d="M12.619 36.74c-.12.092-.238.186-.358.284"/>
                </g>
            </g>
        </g>
        <path stroke="#979797" d="M-167.5-523.5v783h739v-783h-739z"/>
    </g>
</svg>
