<svg xmlns="http://www.w3.org/2000/svg" width="120" height="120" viewBox="0 0 120 120">
    <g fill="none" fill-rule="evenodd">
        <circle cx="60" cy="60" r="60" fill="#14B690"/>
        <g fill="#14B690" fill-rule="nonzero">
            <path d="M87.477 91.821l.019-.011h-.28zM87.747 91.81v-.16l-.251.16zM87.156 91.81h.06l-.06-.003z"/>
        </g>
        <path d="M68.078 38.511l-4.034 7.453M87.285 46.326h-.129V91.5l.243.012.348-.22V46.406z"/>
        <path fill="#FFF" fill-rule="nonzero" d="M64.352 46.326V90.45L87.156 91.5V46.326zM93.498 47.403l-5.75-.997v44.887l5.75-3.649zM90.77 39.05l-2.918 6.755 5.735.995zM89.688 34H69.07a1 1 0 0 0-.993 1.01v3.288h6.024c.43-.183.913-.335 1.428-.438a7.375 7.375 0 0 1 1.435-.147c.977 0 1.758.224 2.168.585h11.492l.053-.012V35.01c0-.557-.446-1.01-.99-1.01zM79.444 38.908c.008.863-1.443 1.861-3.3 2.232-.49.098-.972.147-1.436.147-1.36 0-2.352-.428-2.472-1.066-.078-.427.23-.896.783-1.313h-5.163l-3.69 6.808h23.078l2.941-6.808h-10.74zm-2.655 5.614c-2.413.483-4.52.058-4.707-.947a.753.753 0 0 1-.013-.096l-.038.007v-2.833c.37.617 1.361 1 2.677 1a7.74 7.74 0 0 0 1.503-.153c1.851-.37 3.251-1.29 3.536-2.237l.954 2.28c.053.083.089.17.11.263l.024.057-.013.001c.14.997-1.65 2.181-4.033 2.658z"/>
        <path fill="#14B690" d="M67 60h18v18H67z"/>
        <g fill="#FFF" fill-rule="nonzero">
            <path d="M71.7 73.062c-.573-.157-1.073-.605-1.31-1.257-.393-1.078.08-2.303 1.057-2.736.976-.434 2.086.088 2.479 1.166.07.195.113.394.13.593-1.223.215-1.927 1.36-2.356 2.234zm-.05.106c-.197.41-.332.747-.432.871-.317.396-.6.649-.6.649s1.053-.197 2.402.222c1.35.42 2.621-.718 2.895-1.588.274-.87 1.431-1.176 1.431-1.176s1.45-.294 1.712-2.304c.263-2.01.63-1.632 1.343-2.999.568-1.088.14-2.378-.06-2.86-.02-.37-.608-1.983-.608-1.983-.114.4-1.079 1.036-1.079 1.036l.002.005c-.25.117-.625.28-1.116.458-.98.356-1.715 2.018-1.715 2.018s-.104.349-1.473 1.02c0 0-.61.303-.9 1.132-.289.829-1.007.797-1.694 1.007-.688.21-1.646.667-1.87 2.66 0 0-.317.634-.888.888 0 0 1.228.23 1.53.482.228.189.595.466 1.12.462zm4.693-5.319c-1.28.888-1.308 1.87-1.358 1.892-.033.015-.137.406-.4.725a2.02 2.02 0 0 1-.989-1.135c-.392-1.078.08-2.303 1.057-2.737.821-.364 1.736-.053 2.24.696-.069.14-.221.331-.55.56zm.6-.807s.015.05-.008.138a2.123 2.123 0 0 1-.398-.659c-.41-1.07.044-2.305 1.014-2.756.317-.148.65-.193.968-.15-1.582 1.34-1.577 3.427-1.577 3.427z"/>
        </g>
        <g transform="translate(22 22)">
            <g fill="#FFF" fill-rule="nonzero">
                <path d="M38.048 20.915l1.306 4.57 2.331-.669-3.637-12.73zM35.624 25.842v42.62H6.529V30.56l8.547-4.273 10.97 4.876z"/>
                <path d="M6.53 7.846h29.094v15.222l-9.699 5.388-10.91-4.85-8.486 4.243zM4.105 20.915v-8.826L.468 24.82l2.331.669zM11.378 5.421h9.698V.573h-9.698z"/>
            </g>
            <ellipse cx="20.5" cy="45" fill="#14B690" rx="10.5" ry="9"/>
            <path fill="#FFF" d="M22.045 44.036a.214.214 0 0 1 .23-.004c.389.263.73.552 1.017.855.293.31.529.633.698.958.03.06-.012.126-.097.148-.084.022-.178-.009-.209-.068a4.096 4.096 0 0 0-.662-.91 5.853 5.853 0 0 0-.97-.816c-.067-.044-.07-.117-.007-.163z"/>
            <path fill="#FFF" d="M21.125 42.08c.064.043.124.086.193.14a12.455 12.455 0 0 1 1.88 1.814c.518.615.98 1.285 1.28 1.941.178.387.275.735.301 1.025.048-.09.089-.186.122-.287.118-.36.137-.783.022-1.228-.179-.685-.6-1.32-1.134-1.86a6.748 6.748 0 0 0-2.16-1.451 2.734 2.734 0 0 0-.226-.084 2.391 2.391 0 0 0-.23-.056l-.112-.022L21 42c.044.027.084.052.125.08zM24 46.999c-.323-.16-.698-.438-1.11-.857-.498-.506-1.275-1.446-1.898-2.351-.467-.676-.849-1.336-.97-1.791a2.82 2.82 0 0 1-.015.213c-.035.317.06.714.238 1.139.214.514.544 1.063.904 1.564l.049.026c.606.331 1.131.769 1.448 1.306.085.145.149.291.193.437l.01-.014c.387.233.765.333 1.11.329l.041-.001z"/>
            <path fill="#FFF" d="M20.262 42.836c.098.435.478 1.11.948 1.81.618.921 1.388 1.878 1.88 2.393.58.605 1.062.9 1.407.956l.033.005a1.564 1.564 0 0 0 .44-.278l.005-.017c.073-.29-.012-.744-.294-1.301-.329-.647-.833-1.311-1.402-1.921a13.294 13.294 0 0 0-2.078-1.813 3.289 3.289 0 0 0-.403-.245l-.091-.048c-.225-.116-.432-.223-.692-.374.026.113.07.24.11.362.058.18.11.354.137.471z"/>
            <path fill="#FFF" d="M19.056 43.579c-.226-.594-.347-1.161-.298-1.638.017-.16.02-.392.015-.634a11.687 11.687 0 0 0-.044-.835c-.02-.224.007-.347.168-.432.12-.064.225-.043.398.007.537.152.916.225 1.338.305l.14.027c.126.024.231.049.339.08.109.032.21.068.329.115a9.024 9.024 0 0 1 2.88 1.862c.732.714 1.312 1.56 1.562 2.49a3.073 3.073 0 0 1-.035 1.796 2.51 2.51 0 0 1-.817 1.174 2.187 2.187 0 0 1-1.33.47 2.552 2.552 0 0 1-1.167-.276 2.16 2.16 0 0 1-.045.426 1.935 1.935 0 0 1-.488.942 1.741 1.741 0 0 1-.937.509c-.469.09-1.02.004-1.613-.329-.573-.321-1.442-1.025-2.114-1.794-.532-.609-.95-1.27-1.022-1.84a4.252 4.252 0 0 0-.097-.463 9.514 9.514 0 0 0-.177-.607c-.064-.19-.062-.304.068-.42.096-.084.187-.087.34-.081.42.017.714.003 1.04-.012l.109-.006a2.547 2.547 0 0 1 .538.027c.49.07 1.018.209 1.532.412a9.308 9.308 0 0 1-.612-1.275z"/>
            <path fill="#FFF" d="M20.08 46.322a.18.18 0 0 1-.058-.237.157.157 0 0 1 .222-.061c.356.221.682.48.97.765.295.292.551.61.759.942a.18.18 0 0 1-.046.24.157.157 0 0 1-.225-.048 4.875 4.875 0 0 0-.71-.88 5.273 5.273 0 0 0-.912-.72z"/>
            <path fill="#FFF" d="M18.077 45.03c.607.242 1.327.617 1.994 1.065.572.385 1.106.825 1.499 1.288.185.217.32.426.408.617a1.543 1.543 0 0 0-.2-1.04c-.283-.496-.765-.908-1.327-1.224a6.166 6.166 0 0 0-2.136-.713 2.42 2.42 0 0 0-.207-.02C18.073 45 18.038 45 18 45c.025.008.05.018.077.03zM20 48.99a3.006 3.006 0 0 1-.68-.431c-.387-.313-1.016-.918-1.543-1.522-.318-.364-.601-.73-.777-1.037.063.38.325.842.656 1.285.47.63 1.075 1.202 1.47 1.46.326.214.623.283.874.245zM17.261 45.56c.131.336.48.818.89 1.304.543.641 1.187 1.284 1.584 1.615.447.373.788.527 1.013.52a1.069 1.069 0 0 0 .252-.327c-.011-.242-.136-.576-.389-.956-.311-.468-.739-.918-1.199-1.313a8.548 8.548 0 0 0-1.615-1.102 1.776 1.776 0 0 0-.294-.126l-.066-.022A11.05 11.05 0 0 1 17 45l.096.195c.069.14.13.275.165.365z"/>
        </g>
    </g>
</svg>
