<svg xmlns="http://www.w3.org/2000/svg" width="120" height="120" viewBox="0 0 120 120">
    <g fill="none" fill-rule="evenodd">
        <g>
            <circle cx="60" cy="60" r="57.5" fill="#FFF" stroke="#000" stroke-width="5"/>
            <path d="M13.136 19.308h80.392v80.198H13.136z"/>
            <path fill="#000" d="M72.622 65.85l1.784 4.046a2.017 2.017 0 0 1 .228.934v9.243c3.344.904 5.807 3.955 5.807 7.576 0 4.33-3.525 7.847-7.866 7.847-4.342 0-7.867-3.517-7.867-7.847 0-3.621 2.463-6.672 5.807-7.576v-8.798l-4.94-11.2-26.89 22.75a7.798 7.798 0 0 1 1.663 4.824c0 4.33-3.524 7.847-7.866 7.847s-7.867-3.517-7.867-7.847c0-4.332 3.525-7.848 7.867-7.848 1.028 0 2.011.198 2.911.556l28.278-24.599-4.304-9.757h-12.82c-.139-.005-.174-.002-.313-.024a2.069 2.069 0 0 1-1.223-.663 2.05 2.05 0 0 1 .11-2.847 2.067 2.067 0 0 1 1.27-.568c.052-.004.105-.004.157-.006h11.006l-4.833-10.958c-.554.92-1.117 1.836-1.665 2.76-.1.156-.225.287-.39.377-.06.033-.123.058-.189.08-3.009.831-6.07 1.463-9.105 2.192a1.12 1.12 0 0 1-.41.016 1.038 1.038 0 0 1-.778-.612 1.107 1.107 0 0 1-.08-.333c-.043-1.282-.002-2.564-.002-3.846.003-.115.019-.226.056-.335a1.036 1.036 0 0 1 .859-.685L51.2 29.41l.486-.82-.513-1.165H34.66c-.198-.01-.248-.005-.443-.048a2.068 2.068 0 0 1-.973-.515 2.066 2.066 0 0 1-.64-1.602 2.053 2.053 0 0 1 .995-1.649c.255-.153.543-.25.838-.282.074-.008.15-.008.223-.012h17.856l.216.011c.19.03.24.03.422.09.414.135.779.4 1.033.751.112.157.127.204.213.375l7.618 17.269 18.421-.004c.04 0 .08.002.118.004.104.011.13.011.232.034a1.614 1.614 0 0 1 1.257 1.507c.007.157-.01.313-.05.465-.027.1-.039.124-.077.221l-9.253 21.712-.045.097zM32.494 83.586c2.24 0 4.06 1.816 4.06 4.05 0 2.236-1.82 4.051-4.06 4.051a4.058 4.058 0 0 1-4.06-4.05c0-2.235 1.818-4.051 4.06-4.051zm40.078 0a4.058 4.058 0 0 1 4.06 4.05c0 2.236-1.819 4.051-4.06 4.051a4.058 4.058 0 0 1-4.06-4.05c0-2.235 1.82-4.051 4.06-4.051zM42.16 32.488v1.554l7.344-1.766.386-.651-7.73.863z"/>
        </g>
        <path stroke="#979797" d="M-326.5-354.5v783h739v-783h-739z"/>
    </g>
</svg>
