<svg xmlns="http://www.w3.org/2000/svg" width="120" height="120" viewBox="0 0 120 120">
    <g fill="none" fill-rule="evenodd">
        <circle cx="60" cy="60" r="60" fill="#14B690"/>
        <path fill="#FFF" fill-rule="nonzero" d="M63.903 62.151l-.425-.211c-3.203-1.692-5.995-4.003-8.377-6.937l-.255-.296c-.795-1.016-1.786-2.143-2.977-3.384a.58.58 0 0 0-.425-.17.737.737 0 0 0-.468.17.568.568 0 0 0-.17.423c0 .197.056.352.17.465.907.988 1.885 2.101 2.934 3.342l.17.212c2.494 3.157 5.442 5.598 8.844 7.318l.129.042.212.127c1.531.79 2.863 1.552 3.997 2.284l.34.127c.227 0 .41-.097.552-.296.284-.338.227-.635-.17-.89-1.02-.731-2.38-1.508-4.08-2.326zm3.36-2.495c2.38 1.214 4.081 2.242 5.102 3.088.652.536.92 1.609.807 3.214v.043l-.043.044c0 .731-.142 1.593-.425 2.58l-.977 2.833-.043.042-1.914 5.245c-1.133 3.3-2.069 5.866-2.806 7.7l-1.956 5.16c-.85 2.003-1.432 3.201-1.743 3.596-1.078 1.297-4.352 1.015-9.823-.846a44.005 44.005 0 0 1-6.93-2.876 58.588 58.588 0 0 1-14.16-11.633c-1.673-2.115-3.075-4.202-4.209-6.26-1.672-2.847-2.678-5.132-3.02-6.853-.226-1.185-.14-2.016.257-2.495.31-.395 1.388-1.2 3.231-2.413h.043a92.78 92.78 0 0 1 4.677-2.918l11.14-6.641v-.042l3.36-1.904a11.41 11.41 0 0 1 2.55-1.014h.043c1.446-.451 2.551-.41 3.317.127 1.105.901 2.48 2.395 4.124 4.483l.213.254c2.58 3.157 5.556 5.584 8.93 7.276h.043l.211.21zm-38.78 4.527a.64.64 0 0 0 .042.507l1.276 2.497a42.364 42.364 0 0 0 4.422 6.345c4.224 4.821 9.071 8.812 14.543 11.97a78.924 78.924 0 0 0 5.783 2.58h.212c.312 0 .539-.14.68-.423.114-.423-.027-.704-.425-.846-2.154-.79-4.039-1.607-5.655-2.453a58.568 58.568 0 0 1-14.158-11.633 45.999 45.999 0 0 1-4.252-6.175 36.209 36.209 0 0 1-1.233-2.41c-.057-.143-.17-.27-.34-.383a.765.765 0 0 0-.553.043.9.9 0 0 0-.342.38zM45.66 35.249l.213 2.877c-1.332-.114-3.402-.043-6.208.211l-.596-3.047a.675.675 0 0 0-.255-.423.673.673 0 0 0-.467-.085.674.674 0 0 0-.426.255c-.086.14-.114.296-.086.464l.512 2.961c-2.609.227-4.75.58-6.422 1.058l.85-2.495c1.333-3.017 2.552-5.203 3.658-6.556 1.19-1.494 2.323-2.51 3.402-3.046.538-.283 1.077-.423 1.615-.423.794 0 1.544.296 2.253.887.965.735 1.617 3.189 1.957 7.362zm.809 4.188c.34.085.58.17.723.255.312.395.878 2.002 1.7 4.821l.512 1.735c-.738.225-1.474.536-2.212.93l-2.722 1.566-1.743-4.821c-.142-.368-.44-.495-.893-.382-.369.142-.496.423-.383.846l1.914 5.035-3.614 2.2a212.879 212.879 0 0 0-7.059 4.23c-1.7.986-2.976 1.747-3.827 2.282a182.91 182.91 0 0 1-.255-5.878c-.114-5.5.44-8.968 1.658-10.407.228-.253.524-.464.893-.635 1.417-.675 4.025-1.197 7.824-1.565h.17c3.543-.34 5.98-.41 7.314-.212zm47.198 29.357c1.218.959 1.6 2.2 1.148 3.72-.312 1.101-1.078 2.398-2.296 3.894-1.162 1.382-3.146 2.989-5.953 4.821l-2.169 1.354c.17-1.72.1-4.088-.212-7.106l-.213-2.157 2.381-.254c.17 0 .312-.07.425-.212a.56.56 0 0 0 .128-.464c0-.17-.07-.31-.213-.423-.142-.143-.297-.198-.467-.17l-2.382.254c-.228-1.467-.454-2.594-.68-3.384l2.806-.381c4.138-.452 6.704-.281 7.697.508zM61.309 88.675l-1.786-.381c-.397-.113-.653.043-.765.466-.114.395.043.648.468.761l1.87.38.128.043c.34 0 .539-.183.595-.55a.469.469 0 0 0-.085-.466.672.672 0 0 0-.425-.253zM77 71.881c0-.196-.056-.352-.17-.464a.695.695 0 0 0-.51-.212l-3.104-.127.765-2.03c.255-.93.397-1.677.425-2.242l1.787.127c3.09.282 4.804.55 5.145.804l.297.592v.043h.043c.397 1.014.724 2.495.978 4.441v.041l.297 2.75c.34 3.92.313 6.571-.085 7.952v.043c-.085.423-.227.76-.425 1.014-1.19 1.438-4.52 2.651-9.992 3.64-2.296.394-4.238.675-5.825.845l1.53-4.188c.992-2.426 1.942-5.02 2.85-7.783l1.743-4.737 3.529.125c.424-.056.666-.268.722-.634z"/>
    </g>
</svg>
