<svg xmlns="http://www.w3.org/2000/svg" width="120" height="120" viewBox="0 0 120 120">
    <g fill="none" fill-rule="evenodd">
        <circle cx="60" cy="60" r="60" fill="#14B690"/>
        <g fill="#FFF" fill-rule="nonzero">
            <path d="M41.45 44.55h6.183c0-5.129-4.172-9.284-9.284-9.284v-3.084c0-1.698-1.385-3.1-3.1-3.1a3.082 3.082 0 0 0-3.083 3.1v3.084h-3.084v6.183h9.267c1.715 0 3.1 1.386 3.1 3.1M44.55 56.916c1.698 0 3.1-1.385 3.1-3.1 0-1.698-3.1-6.183-3.1-6.183s-3.1 4.485-3.1 6.183c0 1.699 1.385 3.1 3.1 3.1M87.834 63.1H32.182a3.107 3.107 0 0 0-3.1 3.1c0 1.698 1.386 3.1 3.1 3.1v12.367c0 3.397 2.787 6.184 6.184 6.184v3.1h6.183v-3.1h30.885v3.1h6.184v-3.1h.033a6.186 6.186 0 0 0 6.183-6.184V69.3c1.698 0 3.1-1.385 3.1-3.1-.016-1.715-1.402-3.1-3.1-3.1"/>
        </g>
    </g>
</svg>
