<svg xmlns="http://www.w3.org/2000/svg" width="120" height="120" viewBox="0 0 120 120">
    <g fill="none" fill-rule="evenodd">
        <g>
            <circle cx="60" cy="60" r="57.5" fill="#FFF" stroke="#000" stroke-width="5"/>
            <g fill="#000" fill-rule="nonzero">
                <path d="M62.31 84.519c5.4-.127 11.15-.821 14.276-1.75-4.647.582-8.824.89-12.544.978-24.252.57-29.304-8.193-20.383-11.138-4.58 1.19-8.219 3.79-6.093 6.335 2.538 3.04 11.626 5.307 21.259 5.574a69.5 69.5 0 0 0 3.486 0z"/>
                <path d="M49.08 69.238c1.55 6.277 7.389 10.87 14.353 10.743 8.146-.17 14.728-6.704 14.725-14.613-.016-7.916-13.449-20.017-14.818-32.83C62.022 45.402 48.64 58.02 48.661 65.935c0 .857.094 1.69.244 2.504-8.634.609-15.951 2.817-17.968 5.246-1.336 1.616-.17 3.659 2.506 4.704-4.52-5.538 5.265-8.368 15.636-9.152zM84.048 75.024c9.025 2.623 4.292 11.562-19.963 11.858-3.724.044-7.908-.115-12.572-.532 3.158.818 8.929 1.308 14.33 1.243a71.988 71.988 0 0 0 3.482-.127c9.616-.61 18.618-3.2 21.041-6.328 2.035-2.62-1.697-5.088-6.318-6.114z"/>
            </g>
        </g>
        <path stroke="#979797" d="M-470.5-187.5h739v660h-739z"/>
    </g>
</svg>
