<svg xmlns="http://www.w3.org/2000/svg" width="120" height="120" viewBox="0 0 120 120">
    <g fill="none" fill-rule="evenodd">
        <path stroke="#979797" d="M-309.5-570.5h739v867h-739z"/>
        <g>
            <circle cx="60" cy="60" r="57.5" fill="#FFF" stroke="#000" stroke-width="5"/>
            <path fill="#000" fill-rule="nonzero" d="M86.116 42.394c-9.805-16.208-28.429-22.977-41.599-15.12-.72.43-1.393.91-2.042 1.416a22.653 22.653 0 0 0-5.564 2.362c-1.297.772-2.461 1.688-3.554 2.674.46 1.865.664 3.997.085 5.993 0 0 4.477 4.869 1.617 9.637 0 0 3.386 6.228-.943 9.518 0 0 .615 4.817-4.057 5.954 0 0-1.065 1.146-3.059 1.54a41.732 41.732 0 0 0 3.816 8.26c7.446 12.31 19.976 19.153 31.347 18.3-10.273-.733-20.922-7.352-27.543-18.3a41.778 41.778 0 0 1-3.817-8.26c1.995-.394 3.059-1.54 3.059-1.54a6.048 6.048 0 0 0 1.375-.516 41.147 41.147 0 0 0 3.186 6.54c9.803 16.205 28.427 22.975 41.6 15.117C93.191 78.112 95.92 58.6 86.115 42.394zM41.722 55.096s.6 4.748-3.97 5.928c.288-1.176.167-2.15.167-2.15 4.33-3.29.944-9.519.944-9.519 2.86-4.768-1.618-9.637-1.618-9.637.58-1.995.377-4.128-.085-5.993 1.093-.986 2.258-1.901 3.554-2.674.139-.083.287-.141.427-.22.313 1.641.398 3.42-.094 5.11 0 0 4.478 4.869 1.618 9.637 0 0 3.386 6.229-.943 9.518z"/>
        </g>
    </g>
</svg>
