<svg xmlns="http://www.w3.org/2000/svg" width="120" height="120" viewBox="0 0 120 120">
    <g fill="none" fill-rule="evenodd">
        <circle cx="60" cy="60" r="60" fill="#14B690"/>
        <g fill="#FFF" fill-rule="nonzero">
            <path d="M80.907 41.775c-2.688-1.5-5.75-1.65-8.438-.825-3.36-4.425-8.885-7.8-14.709-7.8-3.883 0-7.317 1.5-10.08 3.825-5.227-.525-11.125 1.575-13.44 5.775-3.136 5.625-3.435 13.35 2.24 16.575 2.837 1.575 7.019 2.1 10.976 1.5 2.987 2.025 6.87 3.3 11.125 3.3 4.331 0 8.288-1.275 11.35-3.45 5.898 1.875 14.037 1.2 16.277-2.775 2.539-4.65.448-12.9-5.301-16.125zM40.288 47.25l-2.39.15s-.149-1.875.673-2.1l1.344.15s.672.9.373 1.8zm10.528 1.35s1.419-1.275 2.016-.75l1.419 1.125s-.896 1.125-1.867 1.5L50.816 48.6zm4.107 12.225l-1.643-1.8s1.419-1.275 2.016-.75l1.419 1.125c.074-.075-.896 1.05-1.792 1.425zM59.179 42.3l-2.39.15s-.149-1.875.672-2.1l1.344.15s.672.9.374 1.8zm5.824 11.4s-.747-1.725-.075-2.175l1.344-.3s.896.6.97 1.575l-2.24.9zm10.752-4.65l-1.643-1.8s1.419-1.275 2.016-.75l1.419 1.125c0-.075-.896 1.125-1.792 1.425zm3.21 9.225l-2.314-.675s.522-1.8 1.344-1.725l1.792.15c-.075 0-.224 1.5-.822 2.25z"/>
            <path d="M70.752 62.475c-.224 2.475-1.12 10.8-3.51 21.15h-.746L69.184 62.7c-2.539 1.65-5.75 2.7-9.184 2.925v18h-.821L58.432 65.7c-3.883 0-7.467-1.05-10.304-2.85l2.688 20.775h-.747c-2.314-10.275-3.21-18.675-3.509-21.15-2.837.3-5.75.075-8.139-.75C41.26 76.95 44.62 84.75 44.62 84.75c17.024 4.425 28.896-.45 28.896-.45 1.866-6.75 4.33-16.65 4.853-21.15-2.539.225-5.227 0-7.616-.675z"/>
        </g>
    </g>
</svg>
