<svg xmlns="http://www.w3.org/2000/svg" width="120" height="120" viewBox="0 0 120 120">
    <g fill="none" fill-rule="evenodd">
        <circle cx="60" cy="60" r="60" fill="#14B690"/>
        <g fill="#FFF" fill-rule="nonzero">
            <path d="M67 29.1c0-1.16-.941-2.1-2.1-2.1h-9.8a2.1 2.1 0 0 0-2.1 2.1V34h14v-4.9zM75 50.25L67.75 36h-14.5L46 50.25v3.563c0 1.781 1.812 1.781 1.812 3.563 0 1.782-1.812 1.782-1.812 3.562 0 1.782 1.813 1.782 1.813 3.563 0 1.781-1.813 1.781-1.813 3.562 0 1.782 1.813 1.782 1.813 3.564 0 1.78-1.813 1.78-1.813 3.563v10.685C46 89.812 49.246 93 53.25 93h14.5c4.004 0 7.25-3.19 7.25-7.125V75.187c0-1.781-1.813-1.781-1.813-3.563 0-1.78 1.812-1.78 1.812-3.563 0-1.78-1.812-1.78-1.812-3.562 0-1.781 1.812-1.781 1.812-3.563 0-1.78-1.812-1.78-1.812-3.563 0-1.78 1.812-1.78 1.812-3.562V50.25H75z"/>
        </g>
    </g>
</svg>
