<svg xmlns="http://www.w3.org/2000/svg" width="120" height="120" viewBox="0 0 120 120">
    <g fill="none" fill-rule="evenodd">
        <g>
            <circle cx="60" cy="60" r="57.5" fill="#FFF" stroke="#000" stroke-width="5"/>
            <g fill="#000" fill-rule="nonzero">
                <path d="M82.496 68.028c-9.296 9.68-24.64 10.525-34.955 1.679-10.311-8.848-11.819-24.15-3.676-34.82l-2.36-2.024c-9.256 11.973-7.594 29.236 4.02 39.198 11.613 9.962 28.917 8.97 39.33-2.01l-2.359-2.023z"/>
                <path d="M41.032 52.931a23.17 23.17 0 0 0 7.193 14.377L61.92 51.326 41.032 52.93zM49.806 68.666a23.147 23.147 0 0 0 15.077 4.923l-1.587-20.667-13.49 15.744zM45.568 36.35a23.175 23.175 0 0 0-4.673 14.5l19.804-1.521-15.13-12.98zM80.79 66.565L65.42 53.381l1.54 20.045a23.138 23.138 0 0 0 13.83-6.86zM61.824 47.6c.105-1.3.83-2.121 1.654-2.19.819-.068 1.425.642 1.323 1.94-.105 1.299-1.673 2.477-1.673 2.477s-1.406-.93-1.304-2.227zM67.192 48.84c1.263-.37 2.09.067 2.191.877.105.81-.556 1.687-1.816 2.06-1.26.37-2.467-.798-2.467-.798s.834-1.769 2.092-2.14zM69.522 89.009a2.687 2.687 0 1 1-5.373.189c-.054-1.483 2.533-4.418 2.533-4.418s2.789 2.744 2.84 4.229z"/>
                <path d="M68.564 87.256c.018.451-.272.828-.647.842l-2.232.079c-.372.013-.689-.342-.702-.794 0 0 .844-2.506.242-4.288-.857-2.55-6.823-4.552-6.45-4.566l12.29-.862c-1.99 1.49-3.127 3.924-3.309 5.415-.34 2.824.808 4.174.808 4.174z"/>
            </g>
        </g>
        <path stroke="#979797" d="M-150.5-369.5h739v660h-739z"/>
    </g>
</svg>
