<svg xmlns="http://www.w3.org/2000/svg" width="120" height="120" viewBox="0 0 120 120">
    <g fill="none" fill-rule="evenodd">
        <path stroke="#979797" d="M-148.5-190.5h739v867h-739z"/>
        <g>
            <circle cx="60" cy="60" r="57.5" fill="#FFF" stroke="#000" stroke-width="5"/>
            <g fill="#000" fill-rule="nonzero">
                <path d="M65.173 63.532c-5.3-.364-9.155-3.517-10.72-5.7-1.687-2.426-7.95-4.366-10.48-4.851-1.928-.364-3.734-.121-5.541.485-1.084.364-2.53.606-3.734 0-3.253-1.698-3.614 2.304-3.614 2.304S28.073 71.051 42.89 76.63c0 0 7.468 1.576 12.406 7.276 4.94 5.58 18.67 4.488 23.128 1.577 4.577-2.91 4.216-6.549 1.686-10.672-2.53-4.245-7.468-10.673-14.936-11.28zM50.236 74.083l-1.445-.97c-.602-.364-.723-1.213-.361-1.82.36-.606 1.204-.727 1.806-.363l1.446.97c.602.364.723 1.213.361 1.82-.361.484-1.204.727-1.807.363zm13.13 4.73c0 .121-.12.242-.12.242-.241.485-.964.728-1.566.607l-1.566-.485c-.723-.243-1.084-.97-.844-1.698.241-.728.964-1.092 1.687-.85l1.566.486c.602.242.963.97.843 1.698zM41.082 64.017c.602.364.723 1.213.361 1.82-.361.606-1.204.727-1.807.363l-1.445-.97c-.602-.364-.723-1.213-.361-1.82.36-.606 1.204-.727 1.806-.363l1.446.97zm1.445-2.79c-.602-.484-.722-1.212-.24-1.818.481-.607 1.204-.728 1.806-.243l1.325.97c.602.364.723 1.213.362 1.698 0 0 0 .121-.12.121-.483.607-1.205.728-1.808.243l-1.325-.97zm9.155 5.216c.24-.728.963-1.092 1.686-.85l1.566.486c.723.242 1.084.97.843 1.698 0 .12-.12.242-.12.242-.241.485-.964.728-1.566.607l-1.566-.486c-.602-.242-.964-.97-.843-1.697zm23.127 11.885c0 .12-.12.242-.12.242-.241.485-.964.728-1.566.607l-1.566-.486c-.723-.242-1.084-.97-.843-1.697.24-.728.963-1.092 1.686-.85l1.566.486c.723.364 1.084 1.091.843 1.698zm-8.793-5.458c0 .121-.12.243-.12.243-.241.485-.964.727-1.566.606l-1.566-.485c-.723-.243-1.084-.97-.844-1.698.241-.727.964-1.091 1.687-.849l1.566.485c.602.243.963.97.843 1.698z"/>
                <path d="M56.982 55.891c.482.607 1.325 1.456 2.53 2.305l-.121-.364c-.241-.728.24-1.455.964-1.577.722-.242 1.445.243 1.565.97l.482 1.698c.12.243 0 .607-.12.85.963.363 1.927.606 3.011.606 6.384.485 12.166 4.487 16.864 11.642-.362-3.517-1.446-7.276-4.337-10.187-3.734-3.76-4.456-8.853-4.215-11.521.24-2.91-3.012-8.61-4.578-10.551-1.084-1.456-2.65-2.547-4.336-3.275-.964-.485-2.289-1.213-2.891-2.547-1.325-3.395-4.216-.727-4.216-.727s-9.636 7.276-6.745 18.676c2.409.85 4.818 2.183 6.143 4.002zm5.54-11.157c-.12-.728.362-1.455.964-1.577.723-.12 1.446.243 1.566.97l.362 1.699c.12.727-.241 1.334-.844 1.576h-.12c-.723.121-1.445-.242-1.566-.97l-.361-1.698zM66.017 54.8c.602-.364 1.445-.243 1.807.485l.843 1.455c.361.607.24 1.456-.482 1.82-.12 0-.24.12-.24.12-.603.243-1.205 0-1.567-.606l-.843-1.455c-.361-.606-.12-1.455.482-1.819zm-9.396-9.945c-.24-.727.241-1.455.964-1.576.723-.243 1.446.242 1.566.97l.482 1.698c.24.727-.241 1.334-.843 1.576h-.12c-.724.243-1.446-.242-1.567-.97l-.482-1.698z"/>
            </g>
        </g>
    </g>
</svg>
