<svg xmlns="http://www.w3.org/2000/svg" width="120" height="120" viewBox="0 0 120 120">
    <g fill="none" fill-rule="evenodd">
        <g>
            <circle cx="60" cy="60" r="57.5" fill="#FFF" stroke="#000" stroke-width="5"/>
            <path fill="#000" fill-rule="nonzero" d="M46.534 36.174c0-3.853 3.14-7.574 4.332-8.847h2.28c-1.713 1.782-4.039 4.925-4.039 8.847v15.003c-.88.096-1.74.259-2.573.473V36.174zM43.83 62.37a9.97 9.97 0 0 0-1.24 1.064V53.081c.402-.188.815-.368 1.24-.539V36.174c0-3.51 1.917-6.753 3.513-8.847h-3.484S39 30.311 39 36.174v53.59c0 1.498 2.567 3.089 3.346 3.575H45.2c-.744-1.213-1.371-2.84-1.371-4.936V62.37zm32.314-35.043H54.776c-1.505 1.388-4.53 4.692-4.53 8.847V51.09c4.212-.172 8.82 1.28 13.134 6.056 5.01 5.542 9.797 7.219 14.041 6.87v6.76c-4.618 1.156-10.102-.14-16.787-5.669-4.114-3.403-7.595-4.591-10.388-4.691v28.832c0 1.815 1.065 3.227 1.956 4.09h25.452c.779-.485 3.346-2.076 3.346-3.574v-53.59c0-5.863-4.857-8.847-4.857-8.847zM49.107 60.435c-.952.068-1.81.26-2.573.523v27.445c0 2.475 1.212 4.05 2.077 4.935h2.05c-.818-1.006-1.554-2.387-1.554-4.09V60.434zm-5.204 33.63S44.565 96 47.44 96H72.56c2.875 0 3.538-1.935 3.538-1.935H43.903zM76.654 24H43.347c-.647 0-1.17.518-1.17 1.156 0 .638.524 1.156 1.17 1.156h33.307c.647 0 1.17-.518 1.17-1.156 0-.639-.523-1.156-1.17-1.156z"/>
        </g>
        <path stroke="#979797" d="M-150.5-187.5h739v660h-739z"/>
    </g>
</svg>
