<svg xmlns="http://www.w3.org/2000/svg" width="120" height="120" viewBox="0 0 120 120">
    <g fill="none" fill-rule="evenodd">
        <g>
            <circle cx="60" cy="60" r="57.5" fill="#FFF" stroke="#000" stroke-width="5"/>
            <path fill="#000" fill-rule="nonzero" d="M94 48.9c0-2.227-1.846-4.05-4.102-4.05h-4.354l-3.588-9.617c-.52-1.393-2.102-2.949-3.516-3.456 0 0-4.95-1.777-17.94-1.777-12.99 0-17.94 1.777-17.94 1.777-1.414.508-2.995 2.063-3.516 3.457l-3.588 9.616h-4.354C28.846 44.85 27 46.673 27 48.9c0 2.228 1.846 4.05 4.102 4.05h1.331l-1.07 2.867c-.52 1.393-.945 3.748-.945 5.233V78.6c0 2.97 2.462 5.4 5.47 5.4 3.008 0 5.47-2.43 5.47-5.4v-2.7h38.285v2.7c0 2.97 2.461 5.4 5.47 5.4 3.007 0 5.469-2.43 5.469-5.4V61.05c0-1.485-.426-3.84-.946-5.233l-1.07-2.867h1.332c2.256 0 4.102-1.823 4.102-4.05zM44.776 36.75h31.448l4.103 12.15H40.673l4.103-12.15zM39.99 65.1c-2.265 0-4.102-1.814-4.102-4.05 0-2.236 1.837-4.05 4.102-4.05 2.265 0 4.102 1.814 4.102 4.05 0 2.236-1.837 4.05-4.102 4.05zm41.02 0c-2.265 0-4.102-1.813-4.102-4.05S78.745 57 81.01 57c2.266 0 4.102 1.813 4.102 4.05s-1.836 4.05-4.102 4.05z"/>
        </g>
        <path stroke="#979797" d="M-166.5-177.5v783h739v-783h-739z"/>
    </g>
</svg>
