<svg xmlns="http://www.w3.org/2000/svg" width="120" height="120" viewBox="0 0 120 120">
    <g fill="none" fill-rule="evenodd">
        <circle cx="60" cy="60" r="60" fill="#14B690"/>
        <g fill="#FFF">
            <path fill-rule="nonzero" d="M64.976 88.4h-7.903a.806.806 0 0 0-.807.8c0 .44.363.8.807.8h7.903c.443 0 .806-.36.806-.8 0-.44-.363-.8-.806-.8zM64.976 85.76h-7.903a.806.806 0 0 0-.807.8c0 .44.363.8.807.8h7.903c.443 0 .806-.36.806-.8 0-.44-.363-.8-.806-.8zM54.976 88.4h-1.734a.806.806 0 0 0-.807.8c0 .44.363.8.807.8h1.734c.443 0 .806-.36.806-.8 0-.44-.363-.8-.806-.8zM68.887 88.4h-1.814a.806.806 0 0 0-.807.8c0 .44.363.8.807.8h1.814c.444 0 .807-.36.807-.8 0-.44-.363-.8-.807-.8zM71.83 88.4h-.846a.806.806 0 0 0-.807.8c0 .44.363.8.807.8h.887c.444 0 .806-.36.806-.8 0-.44-.403-.8-.846-.8zM51.105 88.4H50.5a.806.806 0 0 0-.806.8c0 .44.362.8.806.8h.605c.443 0 .806-.36.806-.8 0-.44-.363-.8-.806-.8zM62.559 74.32l-2.841-1.8-.72-.44 3.4-3.48c.801-.8 1.241-1.88 1.241-3.04V30.8c0-.44-.36-.8-.8-.8h-7.163c-.44 0-.8.36-.8.8v33l-5.883 6c-.6.6-1 1.32-1.16 2.08-.44 1.8.36 3.68 1.92 4.68l5.803 3.64v3.68c0 .44.36.8.8.8H64.2c.44 0 .8-.36.8-.8v-5.16c0-1.8-.92-3.44-2.441-4.4zm-.52-41.72v19.2h-5.563V32.6h5.563zm1.36 50.48h-6.242v-2.52h1.24c.44 0 .8-.36.8-.8 0-.44-.36-.8-.8-.8h-1.84l-6.003-3.76c-1-.64-1.481-1.8-1.2-2.96.12-.48.36-.92.76-1.32l5.882-6h2.361c.44 0 .8-.36.8-.8 0-.44-.36-.8-.8-.8h-1.88v-2.76h1.88c.44 0 .8-.36.8-.8 0-.44-.36-.8-.8-.8h-1.88V52.4h5.562v13.2c0 .72-.28 1.4-.76 1.92l-3.882 3.96h-3.122c-.44 0-.8.36-.8.8 0 .44.36.8.8.8h3.242l.64.4-1.24 1.92c-.24.36-.12.88.24 1.12.12.08.28.12.44.12.28 0 .52-.12.68-.36l1.28-1.96 2.202 1.36c1.08.68 1.72 1.8 1.72 3.08v4.32h-.08z"/>
            <path d="M56 32h7v20h-7z"/>
        </g>
    </g>
</svg>
