<svg xmlns="http://www.w3.org/2000/svg" width="120" height="120" viewBox="0 0 120 120">
    <g fill="none" fill-rule="evenodd">
        <path stroke="#979797" d="M-468.5-380.5h739v867h-739z"/>
        <g>
            <circle cx="60" cy="60" r="57.5" fill="#FFF" stroke="#000" stroke-width="5"/>
            <path fill="#000" fill-rule="nonzero" d="M29.625 53.921c-.195-2.988.157-6.013 1.39-8.63.612-1.315 1.528-2.42 2.388-3.538.89-1.107 1.865-2.17 3.09-3.07l-.047-.143c-.807.063-1.573.369-2.266.762-.699.392-1.33.893-1.903 1.452-1.16 1.122-1.851 2.618-2.381 4.085-1.066 2.97-1.074 6.159-.42 9.1l.149-.018zm5.761 2.487l.15-.024c-.253-2.842-.127-5.716.718-8.35.418-1.32 1.124-2.494 1.741-3.688a23.51 23.51 0 0 1 2.288-3.486l-.082-.128c-1.45.515-2.6 1.604-3.489 2.824-.905 1.234-1.317 2.733-1.628 4.177-.621 2.915-.407 5.892.302 8.675zm12.512-8.374c.843 2.634.973 5.508.717 8.35l.15.024c.71-2.783.925-5.76.302-8.676-.311-1.444-.722-2.94-1.626-4.177-.888-1.219-2.038-2.309-3.49-2.824l-.08.128a23.684 23.684 0 0 1 2.287 3.486c.618 1.196 1.323 2.368 1.74 3.69zm2.853-6.281c.857 1.118 1.772 2.222 2.387 3.537 1.232 2.618 1.584 5.643 1.389 8.631l.15.02c.654-2.942.647-6.133-.421-9.1-.531-1.468-1.22-2.963-2.38-4.086a9.201 9.201 0 0 0-1.905-1.451c-.691-.394-1.457-.7-2.264-.763l-.047.142c1.223.9 2.2 1.963 3.09 3.07zM54.55 60c-.1 4.736 3.47 6.686 5.935 7.52 1.907-1.393 2.87-5.013 1.918-7.52 1.013 1.67 1.794 0 1.794 0s1.781 6.602-1.263 8.398c2.447.879 7.741 1.198 11.932 0-1.405 3.94-8.984 4.972-12.464 3.022-2.422 5.302-6.068 7.241-11.403 3.254 4.775 2.418 6.18-1.583 7.662-4.924-3.289-1.394-5.696-7.8-4.112-9.75zM33.481 36.53c2.671 0 5.038-.44 6.074-2.938C40.593 31.095 41.574 23 41.574 23h1.003s.98 8.093 2.018 10.592c1.037 2.498 3.403 2.938 6.075 2.938 3.26 0 9.482 2.498 9.482 9.553 0 7.055-4.893 13.977-18.075 13.977C28.896 60.06 24 53.138 24 46.083c0-7.055 6.223-9.553 9.482-9.553zm24.783 68.887C47.074 105.417 38 96.5 38 85.502 38 75.89 44.93 67.872 54.147 66c.696 1.91 1.934 3.953 3.56 5.173-1.002 2.24-1.835 3.59-3.22 3.677-1.255.079-3.017-.308-4.243-.614.583 3.412 4.929 4.826 6.808 4.826 2.77 0 5.082-1.668 6.887-4.964 1.088.359 2.364.549 3.713.549 2.191 0 4.571-.507 6.43-1.58 2.778 3.41 4.452 7.727 4.452 12.436-.003 10.998-9.076 19.914-20.269 19.914zM75.615 33.357C86.63 30.927 88 41.698 88 41.698l-.08 4.23-3.82.61c-.66.108-1.01 1.16-.898 1.833.1.665.62 1.629 1.28 1.517l3.393-.546-.229 13.814-3.885.622c-.662.111-1.031 1.065-.928 1.734.102.671.641 1.574 1.306 1.467l3.47-.56L87.299 86l-4.072-8.842 1.074-.174c.656-.104.985-1.106.875-1.78-.1-.668-.848-1.3-1.51-1.194l-1.756.286L74.39 58l4.745-.76c.657-.11.535-1.07.428-1.743-.1-.669-.767-1.416-1.428-1.313l-5.433.876-3.912-9.212c0 .001-4.211-10.15 6.826-12.491zM79.684 30.615s-1.793-1.872 2.553-4.719c2.632-1.729 2.087-3.82 5.763-4.974 0 0-6.2-1.731-10.96 5.651 0 0 .232-5.5-2.507-7.44-2.729-1.941-4.04-2.6-4.029-4.133 0 0-2.643 3.743 1.963 7.944 0 0 1.528 2.596.997 4.449 0 0-.708-.426-2.12-1.347-1.412-.923-2.802-3.197-7.29-3.974 0 0-2.753-.408-3.054-1.026 0 0 1.598 3.568 6.365 5.753C72.13 28.98 71.55 31.903 71.061 33c0 .001 4.056-3.057 8.623-2.385z"/>
        </g>
    </g>
</svg>
