<svg xmlns="http://www.w3.org/2000/svg" width="120" height="120" viewBox="0 0 120 120">
    <g fill="none" fill-rule="evenodd">
        <circle cx="60" cy="60" r="60" fill="#14B690"/>
        <g fill="#FFF" fill-rule="nonzero" transform="translate(36 27)">
            <path d="M2.541 58.226a148.188 148.188 0 0 1 21.278-1.851c8.073.152 16.122.92 24.08 2.295-.719-6.512-1.533-15.675-1.614-24.295H36.67c-.712 6.246-5.946 10.96-12.17 10.96s-11.458-4.714-12.17-10.96H5.587l-3.046 23.85z"/>
            <ellipse cx="24.5" cy="33" rx="9.528" ry="9.625"/>
            <path d="M6.806 26.125H6.64l-.702 5.5h6.397c.711-6.246 5.946-10.96 12.17-10.96 6.223 0 11.458 4.714 12.17 10.96h9.614c.082-8.617.894-17.772 1.613-24.282A148.328 148.328 0 0 1 24.5 9.625 150.143 150.143 0 0 1 1.105 7.348c.028.263.058.53.089.803a16.406 16.406 0 0 1 5.37 9.724h.242v8.25zM24.5 6.875a147.345 147.345 0 0 0 23.724-2.381c.206-1.715.39-3.141.527-4.175A152.987 152.987 0 0 1 24.5 2.75 153.154 153.154 0 0 1 .248.319C.384 1.359.57 2.779.776 4.5A149.352 149.352 0 0 0 24.5 6.875zM48.226 61.513a158.184 158.184 0 0 0-24.407-2.388c-7.25.114-14.484.762-21.641 1.939l-.37 2.887c-.062.451-.182.892-.356 1.312A154.192 154.192 0 0 1 23.82 63.25c8.361.165 16.697.98 24.933 2.44-.139-1.035-.322-2.46-.526-4.177z"/>
        </g>
    </g>
</svg>
