<svg xmlns="http://www.w3.org/2000/svg" width="120" height="120" viewBox="0 0 120 120">
    <g fill="none" fill-rule="evenodd">
        <text fill="#4A4A4A" font-family="OpenSans, Open Sans" font-size="22" transform="translate(-474 -158)">
            <tspan x="109.534" y="129.947">Do you smoke, including roll-your-own or cigars?</tspan>
        </text>
        <g>
            <circle cx="60" cy="60" r="57.5" fill="#FFF" stroke="#000" stroke-width="5"/>
            <g fill="#000" fill-rule="nonzero">
                <path d="M92.773 32.364l-.23-.155-32.345 7.96h-2.92l-3.688 1.004-2.305 2.859-5.915 25.963-4.687 16.228h-7.376v1.236h46.021v-1.236H58.123l1.767-16.46 2.305-16.536-.384-.54h2.382l30.578-8.5.077-.31c2.689-7.959-1.921-11.436-2.075-11.513zM64.116 51.45h-1.46c.154-.54.23-1.314.384-2.24.154-1.7.154-3.092-.077-3.092-.23 0-.537 1.314-.691 3.014-.077.927-.154 1.777-.077 2.318H61.12c-.077-.54-.308-1.314-.538-2.086-.461-1.546-1-2.782-1.23-2.705-.23.077 0 1.391.538 2.936.23.773.461 1.391.692 1.932h-.538c-.307-.386-1.076-1.082-2.074-1.854-1.383-1.082-2.536-1.778-2.69-1.623-.153.155.846 1.16 2.229 2.24.691.542 1.382 1.005 1.843 1.315l1.537 2.086-2.151 15.84-3.458 2.55-2.458-2.163-3.457 2.396-2.69-2.396 5.763-25.268 1.844-2.318 3.073-.85h2.996l10.987-2.705c.691.078 2.305.541 3.303 2.087.846 1.313 1 3.09.615 5.331-3.15 1.005-5.147 1.7-5.147 1.855 0 .155 1.997-.31 4.993-1.16-.153.542-.307 1.083-.537 1.7l-10.45 2.86zm29.656-8.268l-18.516 5.1c.154-.541.384-1.16.461-1.7 1.69-.464 3.688-1.005 5.762-1.623 6.223-1.854 11.294-3.477 11.217-3.709-.076-.232-5.147 1.16-11.447 3.014-1.998.618-3.842 1.159-5.378 1.622.384-2.24.153-4.095-.769-5.409-.768-1.159-1.767-1.7-2.612-2.086l19.669-4.868c.845.772 3.457 3.632 1.613 9.659z"/>
                <path d="M36.918 51.295c1.23.773 2.152 1.7 2.997 2.628l-1.383 1.159-1.383.927c-.23.155-.538.31-.769.464-.307.154-.537.386-.845.618a4.221 4.221 0 0 0-.922 1.854c-.076.696-.076 1.314.077 1.855.23 1.16.692 2.164 1.23 3.09a36.708 36.708 0 0 0 1.613 2.55c.538.774 1.152 1.546 1.767 2.165.307.309.615.695.922 1.004l.46.464c.155.154.231.309.385.463.077.078.154.155.154.232l.153.232.23.464c.078.154.078.309.155.463l.076.232.077.232c0 .154.077.309.077.464v.463c0 .31 0 .618-.077.927-.153 1.237-.538 2.241-.845 3.091-.691 1.623-1.23 2.473-1.152 2.55.076.078.768-.695 1.69-2.318.46-.85.922-1.854 1.152-3.245.077-.31.154-.696.077-1.082V72.7c0-.155-.077-.386-.077-.618v-.31l-.077-.308c-.076-.232-.076-.387-.153-.619-.077-.154-.154-.386-.307-.618l-.154-.309-.23-.232a2.348 2.348 0 0 1-.385-.54c-.153-.155-.307-.31-.384-.464-.307-.31-.538-.618-.845-1.005a52.558 52.558 0 0 1-1.613-2.163c-.538-.773-1.076-1.623-1.46-2.473-.461-.85-.845-1.777-.999-2.782-.154-.927-.077-1.932.461-2.473.154-.154.307-.309.538-.386l.153-.077.23-.078.385-.231c.538-.31.999-.619 1.537-1.005.46-.309.922-.695 1.306-1.082a12.014 12.014 0 0 1 1.46 3.864c.23 1.314.307 2.395.307 3.323 0 1.854-.23 2.859-.154 2.936.077 0 .538-1.005.692-2.86.076-.926.153-2.163-.077-3.554-.23-1.39-.615-2.936-1.46-4.481.23-.232.461-.464.615-.696.845-1.004 1.536-2.086 1.997-3.4.461-1.314.538-2.782.077-4.095a7.802 7.802 0 0 0-.922-1.778c-.154-.309-.384-.54-.538-.772l-.537-.696c-.154-.232-.308-.386-.538-.618l.46-.232c.462-.232 1.153-.54 1.69-.927a21.54 21.54 0 0 0 1.538-1.236c.998-.85 1.92-1.778 2.765-2.782 1.69-2.01 3.227-4.096 4.226-6.491.461-1.16.845-2.473.768-3.787 0-.695-.23-1.39-.614-1.931-.154-.31-.385-.541-.615-.85-.23-.232-.461-.464-.691-.619-1-.772-1.998-1.236-3.074-1.622a16.265 16.265 0 0 0-3.073-.773c-1.997-.31-3.918-.386-5.685-.155a7.999 7.999 0 0 0-1.306.31l-.154.077-.23.463c-.154.078-.23.155-.385.31-.23.231-.384.463-.307.772 0 .155.077.31.154.387l.307.309c.154.154.384.309.538.386.307.232.615.386.922.541 1.23.618 2.458.85 3.38 1.005 1.921.154 2.997-.155 2.92-.232 0-.078-1.076 0-2.843-.31-.922-.231-1.997-.54-3.073-1.158a5.164 5.164 0 0 1-.845-.541 1.061 1.061 0 0 1-.307-.232c-.077-.077-.077-.077-.077-.155 0-.077 0-.154.077-.154 0 0 .076 0 .076-.078H38.455c.307-.077.691-.154 1.075-.231 1.614-.155 3.458 0 5.302.309.922.154 1.92.463 2.842.772.922.387 1.844.85 2.69 1.469.23.154.384.309.537.54.154.155.308.31.384.541.23.387.385.85.385 1.314.076 1.005-.231 2.086-.692 3.168-.922 2.087-2.382 4.173-3.995 6.028-.845.927-1.69 1.854-2.612 2.627-.461.386-.922.773-1.383 1.082-.461.386-.922.54-1.46.85-.307.154-.538.309-.768.386-.999-1.16-1.921-2.318-2.69-3.477-.614-.85-1.075-1.778-1.305-2.55-.23-.85 0-1.391.691-1.778l.307-.154.308-.077c.23-.078.384-.155.614-.232.385-.155.845-.232 1.23-.31.845-.154 1.613-.154 2.381-.154.769.077 1.46.232 1.998.541.538.31.768.773.615 1.314-.077.54-.385 1.004-.769 1.39-.307.387-.691.619-1.152.773-.768.31-1.46.31-1.92.31h-.77c0 .077.231.154.692.309.461.077 1.23.231 2.151-.078.922-.232 2.075-1.082 2.459-2.472 0-.232.077-.387.077-.619-.077-.231-.077-.463-.154-.618-.077-.232-.153-.386-.384-.54l-.23-.233-.231-.154c-.691-.464-1.537-.696-2.382-.773-1.69-.154-3.534 0-5.455.85-.537.232-1.075.618-1.306 1.314-.307.618-.23 1.313-.153 1.854.307 1.16.845 2.087 1.46 3.014a35.432 35.432 0 0 0 2.535 3.4l-1.153.695c-.998.696-1.92 1.391-2.765 2.396-.231.232-.385.54-.538.773-.154.309-.308.54-.384.85-.23.618-.23 1.39 0 2.009.537 1.236 1.613 1.932 2.381 2.472zm-.307-5.331c.691-.773 1.537-1.469 2.459-2.087.384-.232.845-.54 1.229-.772.23.309.46.54.691.85l.538.695c.154.232.384.464.538.695.307.387.538.928.691 1.391a4.983 4.983 0 0 1-.077 3.169 9.017 9.017 0 0 1-2.074 3.245c-.768-1.082-1.844-2.086-3.073-2.936-.384-.31-.768-.541-1.076-.85-.307-.31-.537-.696-.691-1.005-.154-.773.154-1.623.845-2.395z"/>
            </g>
        </g>
    </g>
</svg>
