<svg xmlns="http://www.w3.org/2000/svg" width="120" height="120" viewBox="0 0 120 120">
    <g fill="none" fill-rule="evenodd">
        <g>
            <circle cx="60" cy="60" r="57.5" fill="#FFF" stroke="#000" stroke-width="5"/>
            <g fill="#000" fill-rule="nonzero">
                <path d="M27.796 60.933h1.343l.331 2.177c3.772 5.407 9.833 8.957 16.71 8.957 6.872 0 12.934-3.55 16.707-8.957l.334-2.177h1.34a2.316 2.316 0 0 0 2.307-2.322 2.316 2.316 0 0 0-2.307-2.325H27.796a2.314 2.314 0 0 0-2.304 2.325 2.313 2.313 0 0 0 2.304 2.322z"/>
                <path d="M46.18 76.03c-5.958 0-11.378-2.205-15.64-5.834l2.563 16.916s-.153 3.407 6.46 3.407h13.229c6.616 0 6.46-3.407 6.46-3.407l2.56-16.916C57.56 73.824 52.14 76.03 46.18 76.03zM27.825 53.187c-.048-1.219.278-3.296 2.715-4.802 3.642-2.243 6.792 1.24 6.792 1.24s1.539-6.041 8.848-6.041c7.305 0 7.844 4.647 7.844 4.647s1.846-2.557 6.152-1.782c4.306.776 3.692 5.809 3.692 5.809l.014.93h2.444l-.017-.628c.365-2.96-.853-7.678-5.698-8.55-2.318-.409-4.228-.067-5.674.559-1.49-1.82-4.205-3.464-8.756-3.464-5 0-8.095 2.433-9.774 4.844-1.946-.933-4.52-1.303-7.153.325-3.144 1.942-3.94 4.82-3.9 6.913h2.47zM47.986 35.373c-1.89 0-3.422-1.545-3.422-3.444 0-1.9 1.532-3.447 3.422-3.447 1.888 0 3.422 1.548 3.422 3.447s-1.534 3.444-3.422 3.444zm0-5.65c-1.21 0-2.193.987-2.193 2.206 0 1.216.984 2.207 2.193 2.207 1.207 0 2.19-.99 2.19-2.207a2.2 2.2 0 0 0-2.19-2.207zM57.368 40.913c-2.249 0-4.075-1.843-4.075-4.107 0-2.262 1.826-4.104 4.075-4.104 2.252 0 4.079 1.842 4.079 4.104 0 2.265-1.827 4.107-4.079 4.107zm0-6.734a2.624 2.624 0 0 0-2.61 2.627 2.621 2.621 0 0 0 2.61 2.628 2.621 2.621 0 0 0 2.611-2.628 2.624 2.624 0 0 0-2.61-2.627zM80.638 59.81s-1.006-3.213-2.938-5.495c-1.932-2.283-2.627-11.782-2.627-11.782s-.311-1.492-1.484-1.492-1.426 1.436-1.426 1.436l2.599 12.599s-1.381 2.914-.542 5.959c0 0 4.753-1.343 6.418-1.225zM80.805 62.009s4.095 7.96 13.984 9.76c1.423.26.92 1.525-.343 1.78-1.259.254-4.238.549-6.338-1.055 0 0 1.54 2.818 5.263 5.551 3.72 2.733.53 3.41-.898 1.972-1.426-1.437-5.034-4.058-5.034-4.058s2.238 5.901 2.938 7.018c1.426 2.282.283 4.514-.951 3.102-1.234-1.41-3.92-8.514-3.92-8.514s3.15 9.765 2.308 10.272c-.84.507-1.343.509-2.098-.93-.757-1.435-2.455-8.35-2.455-8.35s.175 6.94-.106 7.886c-.46 1.565-1.762.592-1.593-.087.412-1.66-.378-7.311-.378-7.311s-.461 7.398-1.887 9.173c-2.48 3.08-2.875.238-2.06-1.057 1.79-2.845 2.323-8.397 2.323-8.397s-2.407 6.877-5.053 8.356c-1.096.614-2.163-.522-1.257-1.267 1.85-1.523 4.073-7.32 4.073-7.32s-3.867 4.596-5.752 5.713c-1.023.603-2.218-.776-1.259-1.27 1.72-.889 5.44-6.105 5.44-6.105s-4.73 4.234-6.58 5.223c-1.253.67-2.562-.27-1.295-1.23 2.732-2.078 6.085-5.538 6.085-5.538s-4.534 3.452-6.316 4.03c-2.157.701-3.088-.305 1.282-2.847 2.64-1.536 3.63-3.688 3.63-3.688s-3.191 2.628-6.443 3.475c-1.135.298-2.728-.293-2.475-1.054.248-.762 2.652-.869 3.23-1.142 4.573-2.156 5.188-4.516 6.255-6.72.495-1.024 1.534-4.288 1.534-4.288l6.146-1.083z"/>
            </g>
        </g>
        <path stroke="#979797" d="M-487.5-177.5v783h739v-783h-739z"/>
    </g>
</svg>
