<svg xmlns="http://www.w3.org/2000/svg" width="120" height="120" viewBox="0 0 120 120">
    <g fill="none" fill-rule="evenodd">
        <g>
            <circle cx="60" cy="60" r="57.5" fill="#FFF" stroke="#000" stroke-width="5"/>
            <g fill="#000" fill-rule="nonzero">
                <path d="M96.863 42.167a1.419 1.419 0 0 0-1.887-.671l-14.193 6.706a1.416 1.416 0 0 0-.415.298l-8.937 9.276V56.72c0-.78-.634-1.411-1.417-1.411H30.417c-.784 0-1.417.63-1.417 1.411v18.976c0 4.516 3.689 8.192 8.22 8.192h25.993c4.531 0 8.22-3.676 8.22-8.192V61.854L82.236 50.64l13.957-6.595a1.406 1.406 0 0 0 .67-1.88z"/>
                <path d="M58.103 49.432c.783 0 1.416-.632 1.416-1.412v-6.853c0-.78-.633-1.412-1.416-1.412-.784 0-1.417.631-1.417 1.412v6.853c0 .78.633 1.412 1.417 1.412zM50.217 49.432c.784 0 1.417-.632 1.417-1.412V37.522c0-.78-.633-1.412-1.417-1.412-.783 0-1.416.631-1.416 1.412V48.02c0 .78.633 1.412 1.416 1.412zM42.33 49.432c.783 0 1.416-.632 1.416-1.412v-6.853c0-.78-.633-1.412-1.417-1.412-.783 0-1.416.631-1.416 1.412v6.853c0 .78.633 1.412 1.416 1.412z"/>
            </g>
        </g>
        <path stroke="#979797" d="M-326.5-177.5v783h739v-783h-739z"/>
    </g>
</svg>
