<svg xmlns="http://www.w3.org/2000/svg" width="120" height="120" viewBox="0 0 120 120">
    <g fill="none" fill-rule="evenodd">
        <circle cx="60" cy="60" r="60" fill="#14B690"/>
        <path fill="#FFF" fill-rule="nonzero" d="M82.5 59.61v4.92H78v-3.94a5.74 5.74 0 0 0-1.76-4.43 5.91 5.91 0 0 0-4.15-1.62h-4.64a9.47 9.47 0 0 1-7-3 9.83 9.83 0 0 1-3-7.1 10.09 10.09 0 0 1 10-10v4.5a5.48 5.48 0 0 0-3.93 1.48A4.91 4.91 0 0 0 62 44.14a6.18 6.18 0 0 0 1.62 4.22 5 5 0 0 0 3.86 1.82h4.64a10.79 10.79 0 0 1 7.39 2.68 8.63 8.63 0 0 1 2.99 6.75zm4.85-10.83a16 16 0 0 0-6.82-6.05 9.76 9.76 0 0 0 3-7.17 9.59 9.59 0 0 0-3-7 9.6 9.6 0 0 0-7-3v4.5a5.51 5.51 0 0 1 5.47 5.5 5.48 5.48 0 0 1-1.61 4 5.27 5.27 0 0 1-3.87 1.61v4.5A11.46 11.46 0 0 1 82 49.2a11.81 11.81 0 0 1 3.44 8.58v6.75H90v-6.75a16.44 16.44 0 0 0-2.65-9zM74.9 67.48h7.6v13H41.58l-2.88-3.13h-8.65v-6.74h8.65l2.88-3.13H74.9zm10.55 13H90v-13h-4.5l-.05 13zM69 75.09l-8.42-4.48v2.26h-6.24l8.43 4.48v-2.26H69z"/>
    </g>
</svg>
