<svg xmlns="http://www.w3.org/2000/svg" width="120" height="120" viewBox="0 0 120 120">
    <g fill="none" fill-rule="evenodd">
        <path stroke="#979797" d="M-308.5-190.5h739v867h-739z"/>
        <g>
            <circle cx="60" cy="60" r="57.5" fill="#FFF" stroke="#000" stroke-width="5"/>
            <g fill="#000" fill-rule="nonzero">
                <path d="M44.127 53.262l1.726-.072c-.013-.398.525-9.779-7.66-12.804l-1.076 2.724c7.44 3.437 7.008 10.074 7.01 10.152zM63.862 37.365C47.585 41.33 48.667 52.18 48.667 52.18c14.885-.418 15.195-14.816 15.195-14.816zm-2.9 3.235c-4.39 6.563-10.357 9.494-10.357 9.494C54.43 43.342 60.962 40.6 60.962 40.6zM42.942 90.165s3.127 3.128 6.686-.21l-3.667-1.46-3.02 1.67zM91.468 28l-4.283 3.366c.272.405 4.028 11.656 2.502 21.51-1.745 7.86-6.036 14.666-12.422 19.684a35.258 35.258 0 0 1-8.069 4.77c-1.035 2.224-2.384 4.49-4.034 6.54a40.017 40.017 0 0 0 15.217-7.425C95.388 64.648 99.546 44.37 91.468 28z"/>
                <path d="M83.036 34.275L67.163 46.757c-.96 1.867-2.218 3.667-3.818 5.254.372.24.74.495 1.098.768 5.251 4.002 8.102 10.962 7.09 17.327-.114.708-.28 1.476-.5 2.288a29.9 29.9 0 0 0 3.87-2.573c11.01-8.656 14.06-23.536 8.133-35.546zM70.5 53.162c-.406.528-1.166.63-2.156-.114-.994-.744-1.832-2.053-1.428-2.58.404-.529 1.902-.078 2.893.666.988.743 1.095 1.498.69 2.028zm4.962-10.664c.277-.58 1.79-.445 2.875.067 1.086.512 1.338 1.206 1.058 1.785-.276.58-.98.824-2.065.312-1.089-.512-2.148-1.587-1.868-2.164zm3.436 17.136c-.415.824-1.428 1.158-2.97.396-1.546-.761-3.034-2.328-2.622-3.15.415-.82 2.574-.59 4.116.17 1.542.76 1.887 1.76 1.476 2.584zm2.597-7.439c-.414.823-1.426 1.157-2.97.395-1.545-.76-3.033-2.326-2.62-3.15.414-.822 2.575-.59 4.118.17 1.543.76 1.885 1.761 1.472 2.585zM60.955 57.264c-2.16-1.648-4.435-2.166-6.745-2.046-3.045.16-6.197 2.419-8.968 2.28-2.5-.127-4.9-2.018-7.644-2.125-2.517-.1-4.857.64-6.763 2.024-3.807 2.763-5.374 7.891-4.673 12.022.735 4.35 3.472 8.92 6.68 12.307 3.88 4.09 8.098 5.306 13.34 2.221.886.571 2.266 1.483 3.376 1.682 9.175 1.625 15.416-10.666 16.33-16.407.66-4.16-1.245-9.148-4.933-11.958zm-31.033 11.6l.001-2.469c.59-5.086 4.568-8.192 4.568-8.192-1.28 2.387-1.72 5.192-1.72 7.944l.106 2.458c.467 5.355 2.24 9.925 2.24 9.925-3.461-3.58-4.888-6.844-5.195-9.666z"/>
            </g>
        </g>
    </g>
</svg>
