<svg xmlns="http://www.w3.org/2000/svg" width="120" height="120" viewBox="0 0 120 120">
    <g fill="none" fill-rule="evenodd">
        <g>
            <circle cx="60" cy="60" r="57.5" fill="#FFF" stroke="#000" stroke-width="5"/>
            <g fill="#000" transform="translate(34 27)">
                <ellipse cx="25.466" cy="5.618" rx="5.339" ry="5.618"/>
                <path d="M51.53 26.93l-2.772 2.177 3.277.223.822 15.397 7.03-4.862z"/>
                <path d="M42.257 30.792c.312-3.81 4.297-3.964 4.343 0h-4.343zm-25.114 3.954l-2.455-.545c.021-.83-1.274-4.185-1.644-5.097 2.487-8.305 5.058-6.357 7.662-8.21l-.068 13.497c-.53 12.115-1.872 15.287-6.608 26.79l3.574 2.06c6.302-12.199 7.212-13.88 8.727-22.874 5.212 7.56 3.836 11.271 4.604 23.27h4.107c.628-16.084.244-18.209-4.62-30.089l-.122-8.69c2.023 3.222 7.605 2.26 11.088 4.627-.135.396-.246.831-.325 1.307h-2.865l-.924 21.933 14.786.216-1.13-22.149h-2.726c-.92-4.608-9.13-5.99-12.645-7.316-1.386-2.094-5.197-6.15-7.492-9.237-5.127-6.893-16.553 8.019-17.704 15.507-1.041.662-1.9 1.96-2.455 2.95L4.775 32 0 52.367l14.118 2.647 3.025-20.268zm-3.35-.744l-5.018-1.114c2.4-3.43 4.628-1.95 5.018 1.114z"/>
            </g>
        </g>
        <path stroke="#979797" d="M-488.5-350.5v783h739v-783h-739z"/>
    </g>
</svg>
