<svg xmlns="http://www.w3.org/2000/svg" width="120" height="120" viewBox="0 0 120 120">
    <g fill="none" fill-rule="evenodd">
        <circle cx="60" cy="60" r="60" fill="#14B690"/>
        <g fill="#FFF">
            <g fill-rule="nonzero">
                <path d="M30.154 61a.737.737 0 0 1-.557-.266.984.984 0 0 1 .007-1.261c.976-1.094 1.104-2.542.344-3.872-1.336-2.34-1.257-4.587.221-6.33a.718.718 0 0 1 1.106-.021c.311.342.32.907.019 1.261-.353.416-1.425 1.681-.034 4.117 1.16 2.032.942 4.432-.556 6.115a.732.732 0 0 1-.55.257zM35.154 61a.737.737 0 0 1-.557-.266.983.983 0 0 1 .007-1.261c.975-1.094 1.104-2.542.344-3.872-1.336-2.34-1.258-4.587.22-6.33a.72.72 0 0 1 1.108-.021c.31.342.318.907.018 1.261-.353.416-1.425 1.681-.035 4.117 1.162 2.032.943 4.432-.556 6.115a.732.732 0 0 1-.549.257zM39.155 61a.737.737 0 0 1-.558-.266.983.983 0 0 1 .007-1.261c.975-1.094 1.103-2.542.344-3.872-1.335-2.34-1.258-4.587.22-6.33a.719.719 0 0 1 1.107-.021c.311.342.32.907.02 1.261-.354.416-1.426 1.681-.035 4.117 1.16 2.032.942 4.432-.556 6.115a.732.732 0 0 1-.55.257zM17 87v.53c0 1.357 1.235 2.47 2.745 2.47h31.511C52.766 90 54 88.888 54 87.53V87H17zM53.897 65h-5.17c-.038 0-.074.01-.113.012-.037-.003-.073-.012-.111-.012H20.79c-.985 0-1.79.828-1.79 1.84v5.784C19 79.202 23.289 83.919 29.42 86h10.454c5.597-1.9 9.657-5.995 10.321-11.702h3.702c1.707 0 3.103-1.434 3.103-3.187v-2.923C57 66.435 55.604 65 53.897 65zm.777 6.111c0 .431-.357.797-.777.797h-3.605V67.39h3.605c.42 0 .777.365.777.797v2.923z"/>
            </g>
            <path fill-rule="nonzero" d="M92.903 57.727v-7.921c0-.998-.829-1.806-1.85-1.806H80.788v5.537h1.633c.614 0 1.11.485 1.11 1.083v6.62c0 .599-.496 1.083-1.11 1.083h-4.068c-.613 0-1.11-.484-1.11-1.083v-6.62c0-.599.497-1.083 1.11-1.083h1.634V48H60.849C59.828 48 59 48.808 59 49.806v34.778C59 87.576 61.484 90 64.548 90h22.806c3.064 0 5.549-2.424 5.549-5.416v-4.663C99.055 79.777 104 74.866 104 68.825S99.055 57.87 92.903 57.727zM64.05 85.434c0 .598-.497 1.083-1.11 1.083-.613 0-1.11-.485-1.11-1.083V52.213c0-.598.497-1.083 1.11-1.083.613 0 1.11.485 1.11 1.083v33.22zm29.226-9.705c-.126 0-.248-.013-.373-.019V61.38c.125-.006.247-.018.373-.018 3.908 0 7.076 3.216 7.076 7.184s-3.169 7.184-7.076 7.184z"/>
            <path d="M62.009 32.49c1.547.399 5.366 1.884 3.634 6.325-1.733 4.44 2.18 7.44 2.18 7.44s-7.474-3.528-5.087-7.44c2.659-4.36-.938-6.38-.727-6.325zm5.813 6.325c2.992-5.086-.6-7.877-.363-7.814 1.74.465 5.583 2.26 3.634 7.441C69.144 43.623 74 47 74 47s-8.862-3.621-6.178-8.185z"/>
        </g>
    </g>
</svg>
