<svg xmlns="http://www.w3.org/2000/svg" width="120" height="120" viewBox="0 0 120 120">
    <g fill="none" fill-rule="evenodd">
        <g>
            <circle cx="60" cy="60" r="57.5" fill="#FFF" stroke="#000" stroke-width="5"/>
            <g fill="#000" fill-rule="nonzero">
                <path d="M34.154 63a.737.737 0 0 1-.557-.266.984.984 0 0 1 .007-1.261c.976-1.094 1.104-2.542.344-3.872-1.336-2.34-1.257-4.587.221-6.33a.718.718 0 0 1 1.106-.021c.311.342.32.907.019 1.261-.353.416-1.425 1.681-.034 4.117 1.16 2.032.942 4.432-.556 6.115a.732.732 0 0 1-.55.257zM39.154 63a.737.737 0 0 1-.557-.266.983.983 0 0 1 .007-1.261c.975-1.094 1.104-2.542.344-3.872-1.336-2.34-1.258-4.587.22-6.33a.72.72 0 0 1 1.108-.021c.31.342.318.907.018 1.261-.353.416-1.425 1.681-.035 4.117 1.162 2.032.943 4.432-.556 6.115a.732.732 0 0 1-.549.257zM43.155 63a.737.737 0 0 1-.558-.266.983.983 0 0 1 .007-1.261c.975-1.094 1.103-2.542.344-3.872-1.335-2.34-1.258-4.587.22-6.33a.719.719 0 0 1 1.107-.021c.311.342.32.907.02 1.261-.354.416-1.426 1.681-.035 4.117 1.16 2.032.942 4.432-.556 6.115a.732.732 0 0 1-.55.257zM21 89v.53c0 1.357 1.235 2.47 2.745 2.47h31.511C56.766 92 58 90.888 58 89.53V89H21zM57.897 67h-5.17c-.038 0-.074.01-.113.012-.037-.003-.073-.012-.111-.012H24.79c-.985 0-1.79.828-1.79 1.84v5.784C23 81.202 27.289 85.919 33.42 88h10.454c5.597-1.9 9.657-5.995 10.321-11.702h3.702c1.707 0 3.103-1.434 3.103-3.187v-2.923C61 68.435 59.604 67 57.897 67zm.777 6.111c0 .431-.357.797-.777.797h-3.605V69.39h3.605c.42 0 .777.365.777.797v2.923z"/>
            </g>
            <g fill="#000">
                <path fill-rule="nonzero" d="M96.903 59.727v-7.921c0-.998-.829-1.806-1.85-1.806H84.788v5.537h1.633c.614 0 1.11.485 1.11 1.083v6.62c0 .599-.496 1.083-1.11 1.083h-4.068c-.613 0-1.11-.484-1.11-1.083v-6.62c0-.599.497-1.083 1.11-1.083h1.634V50H64.849C63.828 50 63 50.808 63 51.806v34.778C63 89.576 65.484 92 68.548 92h22.806c3.064 0 5.549-2.424 5.549-5.416v-4.663C103.055 81.777 108 76.866 108 70.825s-4.945-10.954-11.097-11.098zM68.05 87.434c0 .598-.497 1.083-1.11 1.083-.613 0-1.11-.485-1.11-1.083V54.213c0-.598.497-1.083 1.11-1.083.613 0 1.11.485 1.11 1.083v33.22zm29.226-9.705c-.126 0-.248-.013-.373-.019V63.38c.125-.006.247-.018.373-.018 3.908 0 7.076 3.216 7.076 7.184s-3.169 7.184-7.076 7.184z"/>
                <path d="M66.009 34.49c1.547.399 5.366 1.884 3.634 6.325-1.733 4.44 2.18 7.44 2.18 7.44s-7.474-3.528-5.087-7.44c2.659-4.36-.938-6.38-.727-6.325zm5.813 6.325c2.992-5.086-.6-7.877-.363-7.814 1.74.465 5.583 2.26 3.634 7.441C73.144 45.623 78 49 78 49s-8.862-3.621-6.178-8.185z"/>
            </g>
        </g>
        <path stroke="#979797" d="M-310.5-187.5h739v660h-739z"/>
    </g>
</svg>
