<svg xmlns="http://www.w3.org/2000/svg" width="120" height="120" viewBox="0 0 120 120">
    <g fill="none" fill-rule="evenodd">
        <circle cx="60" cy="60" r="57.5" fill="#FFF" stroke="#000" stroke-width="5"/>
        <g fill="#000">
            <g fill-rule="nonzero">
                <path d="M64.976 88.4h-7.903a.806.806 0 0 0-.807.8c0 .44.363.8.807.8h7.903c.443 0 .806-.36.806-.8 0-.44-.363-.8-.806-.8zM64.976 85.76h-7.903a.806.806 0 0 0-.807.8c0 .44.363.8.807.8h7.903c.443 0 .806-.36.806-.8 0-.44-.363-.8-.806-.8zM54.976 88.4h-1.734a.806.806 0 0 0-.807.8c0 .44.363.8.807.8h1.734c.443 0 .806-.36.806-.8 0-.44-.363-.8-.806-.8zM68.887 88.4h-1.814a.806.806 0 0 0-.807.8c0 .44.363.8.807.8h1.814c.444 0 .807-.36.807-.8 0-.44-.363-.8-.807-.8zM71.83 88.4h-.846a.806.806 0 0 0-.807.8c0 .44.363.8.807.8h.887c.444 0 .806-.36.806-.8 0-.44-.403-.8-.846-.8zM51.105 88.4H50.5a.806.806 0 0 0-.806.8c0 .44.362.8.806.8h.605c.443 0 .806-.36.806-.8 0-.44-.363-.8-.806-.8zM63.323 74.32l-2.863-1.8-.726-.44 3.427-3.48c.807-.8 1.25-1.88 1.25-3.04V30.8c0-.44-.363-.8-.806-.8h-7.218a.806.806 0 0 0-.806.8v33l-5.928 6c-.605.6-1.008 1.32-1.17 2.08-.443 1.8.364 3.68 1.936 4.68l5.847 3.64v3.68c0 .44.363.8.807.8h7.903c.443 0 .806-.36.806-.8v-5.16c0-1.8-.927-3.44-2.46-4.4zm-.525-42.72v19.2h-5.604V31.6h5.604zm1.371 51.48h-6.29v-2.52h1.25c.444 0 .806-.36.806-.8 0-.44-.362-.8-.806-.8h-1.855l-6.048-3.76c-1.008-.64-1.492-1.8-1.21-2.96.121-.48.363-.92.766-1.32l5.928-6h2.379c.443 0 .806-.36.806-.8 0-.44-.363-.8-.806-.8h-1.895v-2.76h1.895c.443 0 .806-.36.806-.8 0-.44-.363-.8-.806-.8h-1.895V52.4h5.604v13.2c0 .72-.282 1.4-.766 1.92l-3.911 3.96h-3.145a.806.806 0 0 0-.807.8c0 .44.363.8.807.8h3.266l.645.4-1.25 1.92c-.242.36-.12.88.242 1.12.121.08.282.12.444.12.282 0 .524-.12.685-.36l1.29-1.96 2.218 1.36c1.089.68 1.734 1.8 1.734 3.08v4.32h-.08z"/>
            </g>
            <path d="M57 30h6v21h-6z"/>
        </g>
    </g>
</svg>
