<svg xmlns="http://www.w3.org/2000/svg" width="120" height="120" viewBox="0 0 120 120">
    <g fill="none" fill-rule="evenodd">
        <circle cx="60" cy="60" r="60" fill="#14B690"/>
        <g fill="#FFF" fill-rule="nonzero">
            <path d="M65.184 63.928c-1.752 0-3.504-.202-5.208-.6L39.55 58.561v35.934c0 3.504 9.135 6.343 20.403 6.343 11.274 0 20.409-2.84 20.409-6.343V60.052l-7.783 2.65a22.877 22.877 0 0 1-7.395 1.226zM88.852 50.331a1.494 1.494 0 0 0-1.153-1.385l-12.726-2.97 1.924-5.077 5.954-15.705a3.786 3.786 0 0 0-2.186-4.88 3.76 3.76 0 0 0-2.887.083 3.785 3.785 0 0 0-1.981 2.108L69.48 39.168l-1.925 5.076-8.828-2.061a17.578 17.578 0 0 0-9.665.48l-16.988 5.785a1.498 1.498 0 1 0 .142 2.876l28.977 6.763a17.553 17.553 0 0 0 9.659-.48l16.988-5.785a1.496 1.496 0 0 0 1.012-1.49zm-28.896 3.16c-8.262 0-14.963-1.503-14.963-3.354 0-1.854 6.7-3.357 14.963-3.357 2.334 0 4.543.12 6.512.333L64.1 53.36c-1.316.085-2.706.13-4.144.13zm12.778-1.609l1.131-2.985c.68.384 1.054.802 1.054 1.24 0 .639-.8 1.237-2.185 1.745z"/>
        </g>
    </g>
</svg>
